# xmcd CD database file
#
# Track frame offsets:
#	150
#	13236
#	27247
#	41374
#	53993
#	69891
#	84492
#	100272
#	115394
#	129782
#	146293
#	161200
#	176305
#
# Disc length: 2541 seconds
#
# Revision: 0
# Processed by: cddbd v1.5.2PL0 Copyright (c) Steve Scherf et al.
# Submitted via: CDex 1.96
#
DISCID=a109eb0d
DTITLE=Jake Owen - Greatest Hits
DYEAR=2017
DGENRE=Country
TTITLE0=Yee Haw
TTITLE1=Don't Think I Can't Love You
TTITLE2=Eight Second Ride
TTITLE3=Barefoot Blue Jean Night
TTITLE4=Alone With You
TTITLE5=The One That Got Away
TTITLE6=Anywhere With You
TTITLE7=Days of Gold
TTITLE8=Beachin'
TTITLE9=What We Ain't Got
TTITLE10=American Country Love Song
TTITLE11=Subliminal Love
TTITLE12=Long As You're In It
EXTD=YEAR: 2017
EXTT0=
EXTT1=
EXTT2=
EXTT3=
EXTT4=
EXTT5=
EXTT6=
EXTT7=
EXTT8=
EXTT9=
EXTT10=
EXTT11=
EXTT12=
PLAYORDER=
